<?xml version="1.0" encoding="UTF-8"?>
<svg xmlns="http://www.w3.org/2000/svg" width="253.001239" height="261.808533" xmlns:xlink="http://www.w3.org/1999/xlink" viewBox="0 0 253.001239 261.808533">
  <defs>
    <linearGradient id="c" x1="128.414381" y1="25.19212" x2="125.150828" y2="277.391036" gradientUnits="userSpaceOnUse">
      <stop offset="0" stop-color="#333d58"/>
      <stop offset=".999999" stop-color="#131a34"/>
    </linearGradient>
  </defs>
  <g id="a" data-name="Layer 5">
    <path d="M37.041217,173.290222v2.219971h-1.429993v-2.039978c.47998-.059998.950012-.110046,1.429993-.179993Z"/>
    <path d="M10.301227,115.370178h-1.460022v-.029968c.480042.019958.970032.029968,1.460022.029968Z"/>
  </g>
  <g id="b" data-name="Layer 6">
    <path d="M218.884958,48.406492H34.897488C16.055594,48.406492.781207,63.680879.781207,82.522773v120.750072c0,18.841932,15.274387,34.116281,34.116281,34.116281h183.98747c18.841894,0,34.116281-15.274348,34.116281-34.116281v-120.750072c0-18.841894-15.274387-34.116281-34.116281-34.116281ZM84.528026,188.082756c-.302191.04407-.598043.075538-.900195.113307v3.046847c0,5.508216-4.469547,9.977724-9.977762,9.977724-2.757259,0-5.250095-1.120508-7.063088-2.920899-1.80039-1.806692-2.920937-4.305868-2.920937-7.056825v-1.762621h-10.877919c-5.514517,0-9.984064-4.469547-9.984064-9.977762,0-2.75722,1.120547-5.250095,2.920937-7.063088,1.812993-1.80039,4.305868-2.920937,7.063126-2.920937h28.038378c5.40121.132211,9.83925-3.839998,10.330248-8.548762.553972-5.344537-4.091817-10.676471-10.292479-10.632401v.018865h-15.932906c-.308454,0-.616908-.006301-.919099-.018865-14.547975-.478434-26.200219-12.43283-26.200219-27.100414,0-13.723357,10.191774-25.060845,23.417794-26.867537.302153-.044032.598043-.075538.900195-.113307v-3.046809c0-5.508216,4.469508-9.977762,9.977724-9.977762,2.757259,0,5.250133,1.120547,7.063126,2.920937,1.80039,1.806692,2.920937,4.305868,2.920937,7.056825v1.762621h10.877919c5.514517,0,9.984025,4.469508,9.984025,9.977724,0,2.757259-1.120508,5.250133-2.920899,7.063126-1.812993,1.80039-4.305868,2.920937-7.063126,2.920937h-28.038378c-5.40121-.132211-9.83925,3.839998-10.330287,8.548723-.535068,5.14939,3.751896,10.273614,9.606334,10.613574h16.656858c14.957173.018865,27.081549,12.155844,27.081549,27.119279,0,13.723318-10.191774,25.060806-23.417794,26.867498ZM209.261756,184.273458h-62.871542c-6.642095,0-12.026591-5.384458-12.026591-12.026591,0-6.642095,5.384496-12.026591,12.026591-12.026591h62.871542c6.642095,0,12.026591,5.384496,12.026591,12.026591,0,6.642134-5.384496,12.026591-12.026591,12.026591ZM221.584814,116.877695c0,6.642095-5.384496,12.026591-12.026591,12.026591h-62.871542c-6.642095,0-12.026591-5.384496-12.026591-12.026591v-.000038c0-6.642095,5.384496-12.026591,12.026591-12.026591h62.871542c6.642095,0,12.026591,5.384496,12.026591,12.026591v.000038Z" fill="url(#c)"/>
  </g>
</svg>