<?xml version="1.0" encoding="UTF-8"?>
<svg xmlns="http://www.w3.org/2000/svg" width="253.001239" height="261.808533" xmlns:xlink="http://www.w3.org/1999/xlink" viewBox="0 0 253.001239 261.808533">
  <defs>
    <linearGradient id="c" x1="128.344646" y1="12.323728" x2="125.123746" y2="275.107482" gradientUnits="userSpaceOnUse">
      <stop offset="0" stop-color="#333d58"/>
      <stop offset=".999999" stop-color="#131a34"/>
    </linearGradient>
  </defs>
  <g id="a" data-name="Layer 5">
    <path d="M37.041217,173.290222v2.219971h-1.429993v-2.039978c.47998-.059998.950012-.110046,1.429993-.179993Z"/>
    <path d="M10.301227,115.370178h-1.460022v-.029968c.480042.019958.970032.029968,1.460022.029968Z"/>
  </g>
  <g id="b" data-name="Layer 7">
    <path d="M240.134112,0H13.648334C6.54201,0,.781207,5.760803.781207,12.867126v236.07428c0,7.106323,5.760803,12.867126,12.867126,12.867126h226.485779c7.106323,0,12.867126-5.760803,12.867126-12.867126V12.867126c0-7.106323-5.760803-12.867126-12.867126-12.867126ZM94.493976,72.182495c10.403137-17.760864,35.722046-18.072083,46.662537-1.08429-.247681.341064-.505676.665833-.744446,1.020691l-5.583618,8.299133c-8.590576,12.768494-24.972839,17.739746-39.210571,11.898682h-.000061c-3.626648-1.487854-7.363525-2.266113-11.060547-2.408142,2.403442-4.467529,5.939514-10.901794,9.936707-17.726074ZM182.568439,197.125244h-111.333862c-22.729431,0-38.405334-22.778442-30.286133-44.00824l14.461487-37.81311c6.505981-17.011597,25.743103-25.329224,42.593384-18.41626h.000061c14.237732,5.841125,30.619995.869873,39.210571-11.898621l5.583618-8.299133c16.223145-24.113098,53.532166-16.351685,58.79303,12.230713l12.867615,69.909546c3.667297,19.924316-11.630798,38.295105-31.889771,38.295105Z" fill="url(#c)"/>
  </g>
</svg>