<?xml version="1.0" encoding="UTF-8"?>
<svg xmlns="http://www.w3.org/2000/svg" width="253.001239" height="261.808533" xmlns:xlink="http://www.w3.org/1999/xlink" viewBox="0 0 253.001239 261.808533">
  <defs>
    <linearGradient id="c" x1=".02025" y1="131.864813" x2="251.762193" y2="131.864813" gradientUnits="userSpaceOnUse">
      <stop offset="0" stop-color="#333d58"/>
      <stop offset=".999999" stop-color="#131a34"/>
    </linearGradient>
  </defs>
  <g id="a" data-name="Layer 5">
    <path d="M37.041217,173.290222v2.219971h-1.429993v-2.039978c.47998-.059998.950012-.110046,1.429993-.179993Z"/>
    <path d="M10.301227,115.370178h-1.460022v-.029968c.480042.019958.970032.029968,1.460022.029968Z"/>
  </g>
  <g id="b" data-name="Layer 8">
    <path d="M125.891222,5.993842C56.37462,5.993842.02025,62.348212.02025,131.864813s56.35437,125.870972,125.870972,125.870972,125.870972-56.35437,125.870972-125.870972S195.407823,5.993842,125.891222,5.993842ZM126.157579,240.709357c-8.57428,0-15.525146-6.950867-15.525146-15.525208,0-8.57428,6.950867-15.525146,15.525146-15.525146s15.525146,6.950867,15.525146,15.525146c0,8.574341-6.950867,15.525208-15.525146,15.525208ZM157.782884,158.139227c-10.984924,6.1521-17.915466,17.628784-17.915466,30.219116v.000061c0,7.867493-6.377869,14.245361-14.245361,14.245361h-1.325623c-1.495972,0-2.993103-.213684-4.398071-.727417-6.227844-2.277344-7.674011-8.461975-7.674011-15.346069v-35.561768c0-7.309631,5.925598-13.235229,13.235168-13.235229h.000061c19.818604,0,36.39679-15.563965,37.065613-35.371277.702759-20.813721-15.961914-37.908447-36.623413-37.908447-16.621826,0-30.658936,11.068909-35.142212,26.23761-1.810425,6.125488-7.329773,10.402283-13.717163,10.402283h-.227905c-9.44281,0-16.326843-9.036194-13.7146-18.110535,7.894714-27.4245,33.268127-47.445618,63.28363-47.22699,34.905701.254211,64.451538,29.66394,64.853088,64.568237.285706,24.831421-13.280212,46.516968-33.453735,57.815063Z" fill="url(#c)"/>
  </g>
</svg>