<?xml version="1.0" encoding="UTF-8"?>
<svg xmlns="http://www.w3.org/2000/svg" width="253.001239" height="261.808533" xmlns:xlink="http://www.w3.org/1999/xlink" viewBox="0 0 253.001239 261.808533">
  <defs>
    <linearGradient id="c" x1="41.789705" y1="109.679761" x2="41.350085" y2="145.547103" gradientUnits="userSpaceOnUse">
      <stop offset="0" stop-color="#e5723a"/>
      <stop offset="1" stop-color="#c75646"/>
    </linearGradient>
    <linearGradient id="e" x1="98.687838" y1="107.804315" x2="98.220418" y2="143.925311" gradientUnits="userSpaceOnUse">
      <stop offset="0" stop-color="#333d58"/>
      <stop offset=".999999" stop-color="#131a34"/>
    </linearGradient>
    <linearGradient id="g" x1="155.550643" y1="107.804315" x2="155.083223" xlink:href="#e"/>
    <linearGradient id="i" x1="212.413447" y1="107.804315" x2="211.946027" xlink:href="#e"/>
    <linearGradient id="k" x1="41.825038" y1="153.674352" x2="41.357618" y2="189.795348" xlink:href="#e"/>
    <linearGradient id="m" x1="98.687838" y1="153.674352" x2="98.220418" y2="189.795348" xlink:href="#e"/>
    <linearGradient id="o" x1="155.550643" y1="153.674352" x2="155.083223" y2="189.795348" xlink:href="#e"/>
    <linearGradient id="q" x1="212.413447" y1="153.674352" x2="211.946027" y2="189.795348" xlink:href="#e"/>
    <linearGradient id="s" x1="41.825038" y1="199.544389" x2="41.357618" y2="235.665385" xlink:href="#e"/>
    <linearGradient id="u" x1="98.687838" y1="199.544389" x2="98.220418" y2="235.665385" xlink:href="#e"/>
    <linearGradient id="w" x1="155.550643" y1="199.544389" x2="155.083223" y2="235.665385" xlink:href="#e"/>
    <linearGradient id="y" x1="212.413447" y1="199.544389" x2="211.946027" y2="235.665385" xlink:href="#e"/>
    <linearGradient id="z" x1="128.730322" y1="1.680753" x2="125.358685" y2="262.232068" xlink:href="#e"/>
  </defs>
  <g id="a" data-name="Layer 2">
    <g>
      <g>
        <g id="b" data-name="&amp;lt;Grid Repeat&amp;gt;">
          <rect x="23.65631" y="107.929795" width="35.870036" height="35.870036" rx="8.057771" ry="8.057771" fill="url(#c)"/>
        </g>
        <g id="d" data-name="&amp;lt;Grid Repeat&amp;gt;">
          <rect x="80.51911" y="107.929795" width="35.870036" height="35.870036" rx="8.057771" ry="8.057771" fill="url(#e)"/>
        </g>
        <g id="f" data-name="&amp;lt;Grid Repeat&amp;gt;">
          <rect x="137.381915" y="107.929795" width="35.870036" height="35.870036" rx="8.057771" ry="8.057771" fill="url(#g)"/>
        </g>
        <g id="h" data-name="&amp;lt;Grid Repeat&amp;gt;">
          <rect x="194.244719" y="107.929795" width="35.870036" height="35.870036" rx="8.057771" ry="8.057771" fill="url(#i)"/>
        </g>
        <g id="j" data-name="&amp;lt;Grid Repeat&amp;gt;">
          <rect x="23.65631" y="153.799832" width="35.870036" height="35.870036" rx="8.057771" ry="8.057771" fill="url(#k)"/>
        </g>
        <g id="l" data-name="&amp;lt;Grid Repeat&amp;gt;">
          <rect x="80.51911" y="153.799832" width="35.870036" height="35.870036" rx="8.057771" ry="8.057771" fill="url(#m)"/>
        </g>
        <g id="n" data-name="&amp;lt;Grid Repeat&amp;gt;">
          <rect x="137.381915" y="153.799832" width="35.870036" height="35.870036" rx="8.057771" ry="8.057771" fill="url(#o)"/>
        </g>
        <g id="p" data-name="&amp;lt;Grid Repeat&amp;gt;">
          <rect x="194.244719" y="153.799832" width="35.870036" height="35.870036" rx="8.057771" ry="8.057771" fill="url(#q)"/>
        </g>
        <g id="r" data-name="&amp;lt;Grid Repeat&amp;gt;">
          <rect x="23.65631" y="199.669869" width="35.870036" height="35.870036" rx="8.057771" ry="8.057771" fill="url(#s)"/>
        </g>
        <g id="t" data-name="&amp;lt;Grid Repeat&amp;gt;">
          <rect x="80.51911" y="199.669869" width="35.870036" height="35.870036" rx="8.057771" ry="8.057771" fill="url(#u)"/>
        </g>
        <g id="v" data-name="&amp;lt;Grid Repeat&amp;gt;">
          <rect x="137.381915" y="199.669869" width="35.870036" height="35.870036" rx="8.057771" ry="8.057771" fill="url(#w)"/>
        </g>
        <g id="x" data-name="&amp;lt;Grid Repeat&amp;gt;">
          <rect x="194.244719" y="199.669869" width="35.870036" height="35.870036" rx="8.057771" ry="8.057771" fill="url(#y)"/>
        </g>
      </g>
      <rect x="23.65631" y="107.929795" width="206.902538" height="131.523462" fill="none"/>
      <g>
        <path d="M206.641193,59.196531c0,9.109985-7.389954,16.5-16.5,16.5-9.119995,0-16.509949-7.390015-16.509949-16.5,0-4.130005,1.529968-7.890015,4.029968-10.790039v5.200012c0,6.890015,5.590027,12.470032,12.47998,12.470032,3.440002,0,6.559998-1.400024,8.820007-3.650024,2.26001-2.26001,3.660034-5.369995,3.660034-8.820007v-5.200012c2.5,2.900024,4.019958,6.660034,4.019958,10.790039Z" fill="none"/>
        <path d="M73.301227,59.196531c0,9.109985-7.390015,16.5-16.5,16.5-9.119995,0-16.51001-7.390015-16.51001-16.5,0-4.130005,1.530029-7.890015,4.030029-10.790039v5.200012c0,6.890015,5.589966,12.470032,12.47998,12.470032,3.440002,0,6.559998-1.400024,8.820007-3.650024,2.26001-2.26001,3.649963-5.369995,3.649963-8.820007v-5.200012c2.51001,2.900024,4.030029,6.660034,4.030029,10.790039Z" fill="none"/>
        <rect x="12.871234" y="98.616514" width="228.130005" height="150.150024" fill="none"/>
        <path d="M252.911212,86.616514v-48.469971c0-6.25-5.059998-11.310059-11.309998-11.310059h-38.97998v-11.879944c0-6.890015-5.590027-12.480042-12.480042-12.480042-3.440002,0-6.559998,1.400024-8.819946,3.660034-2.26001,2.26001-3.660034,5.380005-3.660034,8.820007v11.879944h-108.390015v-11.879944c0-6.890015-5.579956-12.480042-12.469971-12.480042-3.440002,0-6.559998,1.400024-8.820007,3.660034s-3.659973,5.380005-3.659973,8.820007v11.879944H12.091205c-6.25,0-11.309998,5.060059-11.309998,11.310059v48.469971h.090027v162.840027c0,6.25,5.059998,11.309998,11.309998,11.309998h229.51001c6.25,0,11.309998-5.059998,11.309998-11.309998V86.616514h-.090027ZM177.661212,48.406492v5.200012c0,6.890015,5.590027,12.470032,12.47998,12.470032,3.440002,0,6.559998-1.400024,8.820007-3.650024,2.26001-2.26001,3.660034-5.369995,3.660034-8.820007v-5.200012c2.5,2.900024,4.019958,6.660034,4.019958,10.790039,0,9.109985-7.389954,16.5-16.5,16.5-9.119995,0-16.509949-7.390015-16.509949-16.5,0-4.130005,1.529968-7.890015,4.029968-10.790039ZM44.321246,48.406492v5.200012c0,6.890015,5.589966,12.470032,12.47998,12.470032,3.440002,0,6.559998-1.400024,8.820007-3.650024,2.26001-2.26001,3.649963-5.369995,3.649963-8.820007v-5.200012c2.51001,2.900024,4.030029,6.660034,4.030029,10.790039,0,9.109985-7.390015,16.5-16.5,16.5-9.119995,0-16.51001-7.390015-16.51001-16.5,0-4.130005,1.530029-7.890015,4.030029-10.790039ZM241.001239,248.766539H12.871234V98.616514h228.130005v150.150024Z" fill="url(#z)"/>
      </g>
    </g>
  </g>
  <g id="aa" data-name="Layer 5">
    <path d="M37.041217,173.290222v2.219971h-1.429993v-2.039978c.47998-.059998.950012-.110046,1.429993-.179993Z"/>
    <path d="M10.301227,115.370178h-1.460022v-.029968c.480042.019958.970032.029968,1.460022.029968Z"/>
  </g>
</svg>