<?xml version="1.0" encoding="UTF-8"?>
<svg id="a" data-name="Layer 4" xmlns="http://www.w3.org/2000/svg" width="174.784425" height="160.715703" xmlns:xlink="http://www.w3.org/1999/xlink" viewBox="0 0 174.784425 160.715703">
  <defs>
    <linearGradient id="b" x1="36.851527" y1="41.729205" x2="47.219017" y2="41.729205" gradientUnits="userSpaceOnUse">
      <stop offset="0" stop-color="#ca5544"/>
      <stop offset="1" stop-color="#e76c26"/>
    </linearGradient>
    <linearGradient id="c" x1="16.524365" y1="100.774319" x2="47.213192" y2="100.774319" xlink:href="#b"/>
    <linearGradient id="d" x1="13.932706" y1="22.770304" x2="63.414739" y2="22.770304" xlink:href="#b"/>
    <linearGradient id="e" x1="88.68375" y1="100.987487" x2="137.990082" y2="100.987487" xlink:href="#b"/>
  </defs>
  <polygon points="16.54852 64.562723 16.525034 64.574465 16.525034 64.562723 16.54852 64.562723" fill="#fff"/>
  <polygon points="47.219017 40.241502 47.219017 36.360549 36.851527 36.360549 36.851527 47.097862 47.219017 40.241502" fill="url(#b)"/>
  <polygon points="151.140728 64.562723 151.457494 64.562723 151.457494 140.839107 77.339685 140.839107 77.339685 130.480424 141.08714 130.480424 141.08714 69.677587 84.378414 32.606904 26.89546 70.182021 26.89546 126.961059 16.525034 126.961059 16.525034 64.574465 16.54852 64.562723 84.014749 19.972434 151.457494 64.070032 151.140728 64.562723" fill="#fff"/>
  <polygon points="125.636067 114.831208 115.900669 114.831208 125.636067 105.028241 125.636067 114.831208" fill="#fff"/>
  <polygon points="47.213192 60.706355 47.213192 140.842283 16.524365 140.842283 16.524365 130.471929 36.854509 130.471929 36.854509 67.475289 47.213192 60.706355" fill="url(#c)"/>
  <path d="M63.414739,14.730276v9.522276c0,1.180134-.956689,2.13682-2.136822,2.136817l-6.826162-.000015c-.418597,0-.846002-.098648-1.176514-.355523-.499863-.388495-1.090511-.571197-1.673844-.571197-1.126222,0-2.240702.692102-2.627781,1.923865l-1.759682,5.560656h-10.358683c-.126592-.441209.0941-7.151139-4.99105-8.738547-7.376543-3.907264-13.385309,2.014066-16.524891,5.762636-.554752.662358-1.604503.097297-1.374059-.735389.633927-2.29063,1.744109-5.13474,3.732905-8.031658.034021-.049506.068123-.098772.102302-.147798,3.752387-5.382266,10.007025-8.462946,16.568214-8.462946h11.0543c1.120884,0,2.16965.55281,2.803108,1.477532l.000003.000005c1.13793,1.661151,3.615404,1.580084,4.642304-.151905l.165177-.27859c.384833-.649066,1.083465-1.047043,1.83804-1.047043h6.406312c1.180134,0,2.136822.956688,2.136822,2.136822Z" fill="url(#d)"/>
  <g>
    <rect x="93.477591" y="32.206337" width="52.828584" height="6.403465" rx="2.729238" ry="2.729238" transform="translate(39.857434 -60.624644) rotate(33.738271)" fill="#fff"/>
    <path d="M129.297177,23.210428l-.000004-.000003c-1.156851-.77264-1.517672-2.309239-.82563-3.516034l6.091009-10.46096c.390107-.680275,1.27469-.887991,1.926812-.452451l3.381567,2.25849c.652121.43554.799099,1.332218.320148,1.953156l-7.329795,9.633597c-.849649,1.101532-2.407257,1.356845-3.564108.584205Z" fill="#fff"/>
    <path d="M147.173128,27.554576l-8.611755,6.29681c-.504881.369186-1.221779.176847-1.474099-.395496-.182293-.413553-.057887-.89814.301032-1.172802l9.320361-7.130758c-.99087-4.038134-2.999828-7.827699-5.961971-10.950454l-7.551716,9.790476c-1.194137,1.548155-3.383249,1.906988-5.009123.821095s-2.133037-3.24552-1.160398-4.941611l6.305442-10.995579c-4.111546-1.919529-8.557721-2.623687-12.871248-2.161331l-3.221326,12.110343c-.116164.436794-.516133.737338-.96803.727326-.62534-.013831-1.077564-.602328-.929999-1.210159l2.731858-11.248687c-6.041311,1.25837-11.614018,4.78657-15.312163,10.323688l40.571591,27.097059c3.468089-5.192663,4.653967-11.228502,3.841543-16.959919Z" fill="#fff"/>
  </g>
  <path d="M69.025516,122.299075c-4.891467,0-9.17074,2.577302-11.58658,6.43971h11.593239l4.904069,6.865739-4.904069,6.865668h-12.035307c2.312447,4.27018,6.831514,7.170691,12.028648,7.170691,7.550251,0,13.670904-6.120653,13.670904-13.670904s-6.120653-13.670904-13.670904-13.670904Z" fill="#fff"/>
  <g>
    <rect x="68.669795" y="68.225406" width="14.484027" height="14.484027" fill="#fff"/>
    <rect x="84.83092" y="68.225406" width="14.484027" height="14.484027" fill="#fff"/>
    <rect x="68.668688" y="84.462763" width="14.484027" height="14.484027" fill="#fff"/>
    <rect x="84.829813" y="84.462763" width="14.484027" height="14.484027" fill="#fff"/>
  </g>
  <path d="M134.635544,121.049125v-1.367305h3.354538v-4.040911h-3.354538v-1.367305h3.354538v-4.040911h-3.354538v-1.367305h3.354538v-4.040911h-3.354538v-1.367305h3.354538v-4.040911h-3.354538v-1.367305h3.354538v-4.040911h-3.354538v-1.367305h3.354538v-4.040911h-3.354538v-1.367305h3.354538v-12.171709l-.598303.681791-48.708028,51.171555h9.030329v-4.307412h1.367305v4.307412h4.040911v-4.307412h1.367305v4.307412h4.040911v-4.307412h1.367305v4.307412h4.040911v-4.307412h1.367305v4.307412h4.040911v-4.307412h1.367305v4.307412h4.040839v-4.307412h1.367305v4.307412h4.040911v-4.307412h1.367305v4.307412h6.459472v-5.865035h-3.354538ZM127.619728,116.543734h-16.365131l16.365131-16.364988v16.364988Z" fill="url(#e)"/>
  <line x1="156.751316" y1="56.545012" x2="156.751316" y2="152.495341" fill="#fff" stroke="#fff" stroke-miterlimit="10"/>
  <line x1="82.696493" y1="146.396893" x2="174.784425" y2="146.396893" fill="#fff" stroke="#fff" stroke-miterlimit="10"/>
  <line x1="10.266566" y1="56.545012" x2="10.266566" y2="152.495341" fill="#fff" stroke="#fff" stroke-miterlimit="10"/>
  <line x1=".264528" y1="68.216936" x2="33.196633" y2="47.685192" fill="#fff" stroke="#fff" stroke-miterlimit="10"/>
</svg>