<?xml version="1.0" encoding="UTF-8"?>
<svg id="a" data-name="Layer 23" xmlns="http://www.w3.org/2000/svg" width="149.109318" height="160.715703" viewBox="0 0 149.109318 160.715703">
  <polygon points="14.224821 49.680547 14.204802 49.690557 14.204802 49.680547 14.224821 49.680547" fill="#fff"/>
  <g id="b" data-name="Layer 24">
    <g>
      <polygon points="40.369169 28.948491 40.369169 25.640264 31.531645 25.640264 31.531645 34.793035 40.369169 28.948491" fill="#ff3131"/>
      <polygon points="31.531645 52.167241 31.531645 114.700567 40.369169 114.700567 40.369169 46.390325 31.531645 52.167241" fill="#ff3131"/>
    </g>
  </g>
  <polygon points="128.954802 49.680547 129.224821 49.680547 129.224821 114.700567 66.044828 114.700567 66.044828 105.87055 120.384855 105.87055 120.384855 54.040593 72.044828 22.440557 23.044828 54.470586 23.044828 102.87055 14.204802 102.87055 14.204802 49.690557 14.224821 49.680547 71.734831 11.670598 129.224821 49.260564 128.954802 49.680547" fill="#e76c26"/>
  <polygon points="107.21395 92.351453 98.915238 92.351453 107.21395 84.174432 107.21395 92.351453" fill="#e76c26"/>
  <rect x="22.86822" y="97.199603" width="8.837545" height="26.164383" transform="translate(-82.994801 137.568787) rotate(-90)" fill="#ff3131"/>
  <path d="M54.174833,7.202043v8.117042c0,1.005977-.815507,1.821482-1.821484,1.82148l-5.818802-.000013c-.356823,0-.721155-.08409-1.002892-.303057-.426096-.331164-.929581-.486903-1.426829-.486903-.960022,0-1.910034.589966-2.23999,1.639954l-1.5,4.740051h-8.830017c-.10791-.376099.080213-6.095821-4.254504-7.44897-6.287962-3.330655-11.409994,1.716843-14.086257,4.912224-.472886.564612-1.367721.082938-1.171284-.626865.540377-1.952594,1.486725-4.376989,3.182028-6.846399.029-.0422.058069-.084196.087205-.125987,3.198635-4.587987,8.530254-7.21404,14.123186-7.21404h9.422979c.955471,0,1.849468.47123,2.389444,1.259488l.000003.000004c.970002,1.416009,3.081866,1.346905,3.957224-.129487l.140801-.237477c.328042-.553281.923574-.892528,1.566794-.892528h5.460911c1.005978,0,1.821484.815506,1.821484,1.821484Z" fill="#ff3131"/>
  <g>
    <rect x="79.801209" y="22.099103" width="45.032491" height="5.458484" rx="2.729238" ry="2.729238" transform="translate(31.021628 -52.645608) rotate(33.738271)" fill="#e76c26"/>
    <path d="M110.334777,14.430751l-.000004-.000002c-.98613-.658619-1.293704-1.968457-.703789-2.997161l5.192139-8.917201c.332538-.579884,1.08658-.756947,1.642465-.385681l2.882538,1.925197c.555885.371266.681173,1.135618.272903,1.664922l-6.248112,8.211934c-.724263.938975-2.05201,1.156611-3.03814.497992Z" fill="#e76c26"/>
    <path d="M125.572713,18.133818l-7.340889,5.367569c-.430374.314704-1.041477.150749-1.256561-.337131-.155391-.352523-.049345-.765598.256608-.999728l7.944923-6.078448c-.844644-3.442213-2.557133-6.672539-5.082142-9.334459l-6.437283,8.345662c-1.017914,1.319689-2.883971,1.625567-4.26991.699923s-1.818257-2.766568-.989154-4.21236l5.374927-9.372924c-3.504791-1.636258-7.294829-2.236501-10.971794-1.842376l-2.745944,10.323178c-.099021.372335-.439966.628526-.825175.619992-.533056-.01179-.918544-.513441-.792756-1.031572l2.328708-9.58868c-5.149774,1.072668-9.900098,4.080199-13.052495,8.800186l34.584304,23.098254c2.956291-4.426364,3.967166-9.571474,3.274633-14.457086Z" fill="#e76c26"/>
  </g>
  <path d="M58.957609,98.89655c-4.169617,0-7.817383,2.19696-9.876709,5.48938h9.882385l4.180359,5.852539-4.180359,5.852478h-10.259216c1.971191,3.640015,5.823364,6.112488,10.25354,6.112488,6.436035,0,11.653442-5.217407,11.653442-11.653442s-5.217407-11.653442-11.653442-11.653442Z" fill="#e76c26"/>
  <g>
    <rect x="58.654383" y="52.802716" width="12.34657" height="12.34657" fill="#e76c26"/>
    <rect x="72.430556" y="52.802716" width="12.34657" height="12.34657" fill="#e76c26"/>
    <rect x="58.653439" y="66.643871" width="12.34657" height="12.34657" fill="#e76c26"/>
    <rect x="72.429613" y="66.643871" width="12.34657" height="12.34657" fill="#e76c26"/>
  </g>
  <path d="M114.885344,97.83106v-1.165527h2.859497v-3.44458h-2.859497v-1.165527h2.859497v-3.44458h-2.859497v-1.165527h2.859497v-3.44458h-2.859497v-1.165527h2.859497v-3.44458h-2.859497v-1.165527h2.859497v-3.44458h-2.859497v-1.165527h2.859497v-3.44458h-2.859497v-1.165527h2.859497v-10.375488l-.51001.581177-41.52002,43.619995h7.697693v-3.671753h1.165527v3.671753h3.44458v-3.671753h1.165527v3.671753h3.44458v-3.671753h1.165527v3.671753h3.44458v-3.671753h1.165527v3.671753h3.44458v-3.671753h1.165527v3.671753h3.444519v-3.671753h1.165527v3.671753h3.44458v-3.671753h1.165527v3.671753h5.506226v-4.999512h-2.859497ZM108.904875,93.990545h-13.950073l13.950073-13.949951v13.949951Z" fill="#ff3131"/>
  <text transform="translate(14.345793 145.514531)" fill="#e76c26" font-family="Bahnschrift-Bold, Bahnschrift" font-size="22.688313" font-variation-settings="&apos;wght&apos; 700, &apos;wdth&apos; 100" font-weight="700"><tspan x="0" y="0" letter-spacing=".009771em">L</tspan><tspan x="13.227539" y="0">AK</tspan><tspan x="42.473633" y="0" letter-spacing="-.043946em">A</tspan><tspan x="56.166016" y="0">Y IN</tspan><tspan x="95.803711" y="0" letter-spacing="-.029312em">C</tspan><tspan x="109.174805" y="0">.</tspan></text>
  <g>
    <text transform="translate(24.719816 157.940313)" fill="#ff3131" font-family="SegoeUIEmoji, &apos;Segoe UI Emoji&apos;" font-size="11.344156"><tspan x="0" y="0">General Contrac</tspan><tspan x="80.527344" y="0" letter-spacing="-.007834em">t</tspan><tspan x="84.282227" y="0">or</tspan></text>
    <circle cx="17.982954" cy="154.540965" r="1.720053" fill="#ff3131"/>
    <circle cx="125.861744" cy="154.540965" r="1.720053" fill="#ff3131"/>
  </g>
  <line x1="133.737415" y1="42.846037" x2="133.737415" y2="124.636651" fill="#ff3131" stroke="#ff3131" stroke-miterlimit="10"/>
  <line x1="70.611114" y1="119.438172" x2="149.109318" y2="119.438172" fill="#e76c26" stroke="#e76c26" stroke-miterlimit="10"/>
  <line x1="8.869917" y1="42.846037" x2="8.869917" y2="124.636651" fill="#ff3131" stroke="#ff3131" stroke-miterlimit="10"/>
  <line x1=".343914" y1="52.795496" x2="28.416116" y2="35.293691" fill="#e76c26" stroke="#e76c26" stroke-miterlimit="10"/>
</svg>