<?xml version="1.0" encoding="UTF-8"?>
<svg id="a" data-name="Layer 4" xmlns="http://www.w3.org/2000/svg" width="149.109318" height="163.462774" xmlns:xlink="http://www.w3.org/1999/xlink" viewBox="0 0 149.109318 163.462774">
  <defs>
    <linearGradient id="b" x1="31.45226" y1="32.963942" x2="40.289784" y2="32.963942" gradientUnits="userSpaceOnUse">
      <stop offset="0" stop-color="#ca5544"/>
      <stop offset="1" stop-color="#e76c26"/>
    </linearGradient>
    <linearGradient id="c" x1="14.124846" y1="83.295568" x2="40.284819" y2="83.295568" xlink:href="#b"/>
    <linearGradient id="d" x1="11.915647" y1="16.80287" x2="54.095448" y2="16.80287" xlink:href="#b"/>
    <linearGradient id="e" x1="75.635426" y1="83.477278" x2="117.665455" y2="83.477278" xlink:href="#b"/>
  </defs>
  <polygon points="14.145436 52.427839 14.125416 52.437849 14.125416 52.427839 14.145436 52.427839" fill="#fff"/>
  <polygon points="40.289784 31.695784 40.289784 28.387556 31.45226 28.387556 31.45226 37.540327 40.289784 31.695784" fill="url(#b)"/>
  <polygon points="128.875416 52.427839 129.145436 52.427839 129.145436 117.447859 65.965443 117.447859 65.965443 108.617842 120.30547 108.617842 120.30547 56.787886 71.965443 25.187849 22.965443 57.217879 22.965443 105.617842 14.125416 105.617842 14.125416 52.437849 14.145436 52.427839 71.655446 14.417891 129.145436 52.007857 128.875416 52.427839" fill="#fff"/>
  <polygon points="107.134565 95.278034 98.835852 95.278034 107.134565 86.921724 107.134565 95.278034" fill="#fff"/>
  <polygon points="40.284819 49.140569 40.284819 117.450567 14.124846 117.450567 14.124846 108.610601 31.454802 108.610601 31.454802 54.910589 40.284819 49.140569" fill="url(#c)"/>
  <path d="M54.095448,9.949336v8.117042c0,1.005977-.815507,1.821482-1.821484,1.82148l-5.818802-.000013c-.356823,0-.721155-.08409-1.002892-.303057-.426096-.331164-.929581-.486903-1.426829-.486903-.960022,0-1.910034.589966-2.23999,1.639954l-1.5,4.740051h-8.830017c-.10791-.376099.080213-6.095821-4.254504-7.44897-6.287962-3.330655-11.409994,1.716843-14.086257,4.912224-.472886.564612-1.367721.082938-1.171284-.626865.540377-1.952594,1.486725-4.376989,3.182028-6.846399.029-.0422.058069-.084196.087205-.125987,3.198635-4.587987,8.530254-7.21404,14.123186-7.21404h9.422979c.955471,0,1.849468.47123,2.389444,1.259488l.000003.000004c.970002,1.416009,3.081866,1.346905,3.957224-.129487l.140801-.237477c.328042-.553281.923574-.892528,1.566794-.892528h5.460911c1.005978,0,1.821484.815506,1.821484,1.821484Z" fill="url(#d)"/>
  <g>
    <rect x="79.721823" y="24.846395" width="45.032491" height="5.458484" rx="2.729238" ry="2.729238" transform="translate(32.534105 -52.138828) rotate(33.738271)" fill="#fff"/>
    <path d="M110.255392,17.178043l-.000004-.000002c-.98613-.658619-1.293704-1.968457-.703789-2.997161l5.192139-8.917201c.332538-.579884,1.08658-.756947,1.642465-.385681l2.882538,1.925197c.555885.371266.681173,1.135618.272903,1.664922l-6.248112,8.211934c-.724263.938975-2.05201,1.156611-3.03814.497992Z" fill="#fff"/>
    <path d="M125.493328,20.88111l-7.340889,5.367569c-.430374.314704-1.041477.150749-1.256561-.337131-.155391-.352523-.049345-.765598.256608-.999728l7.944923-6.078448c-.844644-3.442213-2.557133-6.672539-5.082142-9.334459l-6.437283,8.345662c-1.017914,1.319689-2.883971,1.625567-4.26991.699923s-1.818257-2.766568-.989154-4.21236l5.374927-9.372924c-3.504791-1.636258-7.294829-2.236501-10.971794-1.842376l-2.745944,10.323178c-.099021.372335-.439966.628526-.825175.619992-.533056-.01179-.918544-.513441-.792756-1.031572l2.328708-9.58868c-5.149774,1.072668-9.900098,4.080199-13.052495,8.800186l34.584304,23.098254c2.956291-4.426364,3.967166-9.571474,3.274633-14.457086Z" fill="#fff"/>
  </g>
  <path d="M58.878224,101.643843c-4.169617,0-7.817383,2.19696-9.876709,5.48938h9.882385l4.180359,5.852539-4.180359,5.852478h-10.259216c1.971191,3.640015,5.823364,6.112488,10.25354,6.112488,6.436035,0,11.653442-5.217407,11.653442-11.653442s-5.217407-11.653442-11.653442-11.653442Z" fill="#fff"/>
  <g>
    <rect x="58.574998" y="55.550009" width="12.34657" height="12.34657" fill="#fff"/>
    <rect x="72.351171" y="55.550009" width="12.34657" height="12.34657" fill="#fff"/>
    <rect x="58.574054" y="69.391164" width="12.34657" height="12.34657" fill="#fff"/>
    <rect x="72.350228" y="69.391164" width="12.34657" height="12.34657" fill="#fff"/>
  </g>
  <path d="M114.805958,100.578352v-1.165527h2.859497v-3.44458h-2.859497v-1.165527h2.859497v-3.44458h-2.859497v-1.165527h2.859497v-3.44458h-2.859497v-1.165527h2.859497v-3.44458h-2.859497v-1.165527h2.859497v-3.44458h-2.859497v-1.165527h2.859497v-3.44458h-2.859497v-1.165527h2.859497v-10.375488l-.51001.581177-41.52002,43.619995h7.697693v-3.671753h1.165527v3.671753h3.44458v-3.671753h1.165527v3.671753h3.44458v-3.671753h1.165527v3.671753h3.44458v-3.671753h1.165527v3.671753h3.44458v-3.671753h1.165527v3.671753h3.444519v-3.671753h1.165527v3.671753h3.44458v-3.671753h1.165527v3.671753h5.506226v-4.999512h-2.859497ZM108.82549,96.737837h-13.950073l13.950073-13.949951v13.949951Z" fill="url(#e)"/>
  <text transform="translate(14.266407 148.261824)" fill="#fff" font-family="Bahnschrift-Bold, Bahnschrift" font-size="22.688313" font-variation-settings="&apos;wght&apos; 700, &apos;wdth&apos; 100" font-weight="700"><tspan x="0" y="0" letter-spacing=".009771em">L</tspan><tspan x="13.227539" y="0">AK</tspan><tspan x="42.473633" y="0" letter-spacing="-.043946em">A</tspan><tspan x="56.166016" y="0">Y IN</tspan><tspan x="95.803711" y="0" letter-spacing="-.029312em">C</tspan><tspan x="109.174805" y="0">.</tspan></text>
  <g>
    <text transform="translate(24.640431 160.687605)" fill="#fff" font-family="SegoeUIEmoji, &apos;Segoe UI Emoji&apos;" font-size="11.344156"><tspan x="0" y="0">General Contrac</tspan><tspan x="80.527344" y="0" letter-spacing="-.007834em">t</tspan><tspan x="84.282227" y="0">or</tspan></text>
    <circle cx="17.903569" cy="157.288257" r="1.720053" fill="#fff"/>
    <circle cx="125.782358" cy="157.288257" r="1.720053" fill="#fff"/>
  </g>
  <line x1="133.65803" y1="45.59333" x2="133.65803" y2="127.383944" fill="#fff" stroke="#fff" stroke-miterlimit="10"/>
  <line x1="70.531729" y1="122.185464" x2="149.029933" y2="122.185464" fill="#fff" stroke="#fff" stroke-miterlimit="10"/>
  <line x1="8.790532" y1="45.59333" x2="8.790532" y2="127.383944" fill="#fff" stroke="#fff" stroke-miterlimit="10"/>
  <line x1=".264528" y1="55.542788" x2="28.336731" y2="38.040983" fill="#fff" stroke="#fff" stroke-miterlimit="10"/>
</svg>